<?xml version="1.0" encoding="UTF-8" standalone="no"?>
<svg
   height="24px"
   viewBox="0 0 24 24"
   width="24px"
   fill="#1DC4F2"
   version="1.1"
   xmlns:inkscape="http://www.inkscape.org/namespaces/inkscape"
   xmlns:sodipodi="http://sodipodi.sourceforge.net/DTD/sodipodi-0.dtd"
   xmlns="http://www.w3.org/2000/svg"
   xmlns:svg="http://www.w3.org/2000/svg">
  <style>
      path, g, polygon {
        fill: rgb(250,20,20);
      }
    </style>
  <path
     d="m 20.554579,20.264782 c -0.652235,-0.569848 -1.35253,-1.064174 -2.087154,-1.469247 v -1.647753 c 1.105368,0.542385 2.155811,1.235814 3.123865,2.080288 l -1.036711,1.036712 M 5.5325602,18.781804 c -0.7483547,0.418804 -1.4486499,0.91313 -2.09402,1.476111 L 2.4155599,19.234936 c 0.9680552,-0.844474 2.0184981,-1.537903 3.1238659,-2.09402 l -0.00686,1.640888 m 15.7360462,3.515208 2.402974,-2.402975 c 0.377612,-0.37761 0.377612,-0.995518 0,-1.373129 -6.446835,-6.446834 -16.896338,-6.446834 -23.34317338,0 -0.37761016,0.377611 -0.37761016,0.995519 0,1.373129 l 2.39610668,2.396107 c 0.3776101,0.377611 0.9955177,0.377611 1.3731278,0 0.8513394,-0.851339 1.8193945,-1.544768 2.8423747,-2.059691 0.096119,-0.0412 0.1785066,-0.10985 0.2471631,-0.178506 0.1785065,-0.178506 0.281491,-0.418805 0.2883568,-0.686563 v -3.020881 c 2.9384933,-0.94746 6.1172843,-0.954325 9.0489123,0 v 3.020881 c 0,0.384474 0.212835,0.70716 0.528654,0.871935 1.022982,0.514923 1.984171,1.201486 2.842375,2.059693 0.377612,0.377609 0.995519,0.377609 1.373129,0 z" />
  <path
     d="m 11.999989,12.431284 0.999529,-0.99953 -3.9555849,-3.9626725 8.6271459,1.6e-6 V 6.0513104 l -8.627145,-6e-7 3.955612,-3.9626461 -0.999539,-0.9995393 -5.6710861,5.671086 z" />
</svg>
