<?xml version="1.0" encoding="UTF-8" standalone="no"?>
<svg
   height="24px"
   viewBox="0 0 24 24"
   width="24px"
   fill="#1DC4F2"
   version="1.1"
   xmlns:inkscape="http://www.inkscape.org/namespaces/inkscape"
   xmlns:sodipodi="http://sodipodi.sourceforge.net/DTD/sodipodi-0.dtd"
   xmlns="http://www.w3.org/2000/svg"
   xmlns:svg="http://www.w3.org/2000/svg">
  <style>
      path, g, polygon {
        fill: #ffffff;
      }
    </style>
  <path
     d="m 5.903712,6.1023144 c 0.06,0.89 0.21,1.76 0.45,2.59 l -1.2,1.2 c -0.41,-1.2 -0.67,-2.47 -0.76,-3.79 h 1.51 m 9.86,12.0199996 c 0.85,0.24 1.72,0.39 2.6,0.45 v 1.49 c -1.32,-0.09 -2.59,-0.35 -3.8,-0.75 l 1.2,-1.19 m -8.9,-14.0199996 h -3.5 c -0.55,0 -1,0.45 -1,1 0,9.3899996 7.61,16.9999996 17,16.9999996 0.55,0 1,-0.45 1,-1 v -3.49 c 0,-0.55 -0.45,-1 -1,-1 -1.24,0 -2.45,-0.2 -3.57,-0.57 -0.1,-0.04 -0.21,-0.05 -0.31,-0.05 -0.26,0 -0.51,0.1 -0.71,0.29 l -2.2,2.2 c -2.83,-1.45 -5.15,-3.76 -6.59,-6.59 l 2.2,-2.1999996 c 0.28,-0.28 0.36,-0.67 0.25,-1.02 -0.37,-1.12 -0.57,-2.32 -0.57,-3.57 0,-0.55 -0.45,-1 -1,-1 z" />
  <path
     d="M 21.135029,10.419073 V 9.0055246 l -5.599056,-0.00501 6.100315,-6.1003127 -1.002517,-1.0025163 -6.100313,6.1003121 -0.005,-5.5990539 h -1.413562 v 8.0201272 z" />
</svg>
